<svg xmlns="http://www.w3.org/2000/svg" width="1745" height="914" style="cursor: move;"><g transform="translate(569.8888572340474,7.587901129337638) scale(0.8362463999140635)"><rect class="rect" id="0_0" width="28" height="28" x="50" y="443" style="fill: rgb(160, 160, 160); stroke: black; stroke-width: 3; opacity: 0.8;"></rect><rect class="rect" id="1_0" width="28" height="28" x="126" y="365.5" style="fill: rgb(160, 160, 160); stroke: black; stroke-width: 3; opacity: 0.8;"></rect><rect class="rect" id="1_1" width="28" height="28" x="131" y="370.5" style="fill: rgb(224, 224, 224); stroke: black; stroke-width: 3; opacity: 0.8;"></rect><rect class="rect" id="1_2" width="28" height="28" x="136" y="375.5" style="fill: rgb(160, 160, 160); stroke: black; stroke-width: 3; opacity: 0.8;"></rect><rect class="rect" id="1_3" width="28" height="28" x="141" y="380.5" style="fill: rgb(224, 224, 224); stroke: black; stroke-width: 3; opacity: 0.8;"></rect><rect class="rect" id="1_4" width="28" height="28" x="146" y="385.5" style="fill: rgb(160, 160, 160); stroke: black; stroke-width: 3; opacity: 0.8;"></rect><rect class="rect" id="1_5" width="28" height="28" x="151" y="390.5" style="fill: rgb(224, 224, 224); stroke: black; stroke-width: 3; opacity: 0.8;"></rect><rect class="rect" id="1_6" width="28" height="28" x="156" y="395.5" style="fill: rgb(160, 160, 160); stroke: black; stroke-width: 3; opacity: 0.8;"></rect><rect class="rect" id="1_7" width="28" height="28" x="161" y="400.5" style="fill: rgb(224, 224, 224); stroke: black; stroke-width: 3; opacity: 0.8;"></rect><rect class="rect" id="1_8" width="28" height="28" x="166" y="405.5" style="fill: rgb(160, 160, 160); stroke: black; stroke-width: 3; opacity: 0.8;"></rect><rect class="rect" id="1_9" width="28" height="28" x="171" y="410.5" style="fill: rgb(224, 224, 224); stroke: black; stroke-width: 3; opacity: 0.8;"></rect><rect class="rect" id="1_10" width="28" height="28" x="176" y="415.5" style="fill: rgb(160, 160, 160); stroke: black; stroke-width: 3; opacity: 0.8;"></rect><rect class="rect" id="1_11" width="28" height="28" x="181" y="420.5" style="fill: rgb(224, 224, 224); stroke: black; stroke-width: 3; opacity: 0.8;"></rect><rect class="rect" id="1_12" width="28" height="28" x="186" y="425.5" style="fill: rgb(160, 160, 160); stroke: black; stroke-width: 3; opacity: 0.8;"></rect><rect class="rect" id="1_13" width="28" height="28" x="191" y="430.5" style="fill: rgb(224, 224, 224); stroke: black; stroke-width: 3; opacity: 0.8;"></rect><rect class="rect" id="1_14" width="28" height="28" x="196" y="435.5" style="fill: rgb(160, 160, 160); stroke: black; stroke-width: 3; opacity: 0.8;"></rect><rect class="rect" id="1_15" width="28" height="28" x="201" y="440.5" style="fill: rgb(224, 224, 224); stroke: black; stroke-width: 3; opacity: 0.8;"></rect><rect class="rect" id="1_16" width="28" height="28" x="206" y="445.5" style="fill: rgb(160, 160, 160); stroke: black; stroke-width: 3; opacity: 0.8;"></rect><rect class="rect" id="1_17" width="28" height="28" x="211" y="450.5" style="fill: rgb(224, 224, 224); stroke: black; stroke-width: 3; opacity: 0.8;"></rect><rect class="rect" id="1_18" width="28" height="28" x="216" y="455.5" style="fill: rgb(160, 160, 160); stroke: black; stroke-width: 3; opacity: 0.8;"></rect><rect class="rect" id="1_19" width="28" height="28" x="221" y="460.5" style="fill: rgb(224, 224, 224); stroke: black; stroke-width: 3; opacity: 0.8;"></rect><rect class="rect" id="1_20" width="28" height="28" x="226" y="465.5" style="fill: rgb(160, 160, 160); stroke: black; stroke-width: 3; opacity: 0.8;"></rect><rect class="rect" id="1_21" width="28" height="28" x="231" y="470.5" style="fill: rgb(224, 224, 224); stroke: black; stroke-width: 3; opacity: 0.8;"></rect><rect class="rect" id="1_22" width="28" height="28" x="236" y="475.5" style="fill: rgb(160, 160, 160); stroke: black; stroke-width: 3; opacity: 0.8;"></rect><rect class="rect" id="1_23" width="28" height="28" x="241" y="480.5" style="fill: rgb(224, 224, 224); stroke: black; stroke-width: 3; opacity: 0.8;"></rect><rect class="rect" id="1_24" width="28" height="28" x="246" y="485.5" style="fill: rgb(160, 160, 160); stroke: black; stroke-width: 3; opacity: 0.8;"></rect><rect class="rect" id="1_25" width="28" height="28" x="251" y="490.5" style="fill: rgb(224, 224, 224); stroke: black; stroke-width: 3; opacity: 0.8;"></rect><rect class="rect" id="1_26" width="28" height="28" x="256" y="495.5" style="fill: rgb(160, 160, 160); stroke: black; stroke-width: 3; opacity: 0.8;"></rect><rect class="rect" id="1_27" width="28" height="28" x="261" y="500.5" style="fill: rgb(224, 224, 224); stroke: black; stroke-width: 3; opacity: 0.8;"></rect><rect class="rect" id="1_28" width="28" height="28" x="266" y="505.5" style="fill: rgb(160, 160, 160); stroke: black; stroke-width: 3; opacity: 0.8;"></rect><rect class="rect" id="1_29" width="28" height="28" x="271" y="510.5" style="fill: rgb(224, 224, 224); stroke: black; stroke-width: 3; opacity: 0.8;"></rect><rect class="rect" id="1_30" width="28" height="28" x="276" y="515.5" style="fill: rgb(160, 160, 160); stroke: black; stroke-width: 3; opacity: 0.8;"></rect><rect class="rect" id="1_31" width="28" height="28" x="281" y="520.5" style="fill: rgb(224, 224, 224); stroke: black; stroke-width: 3; opacity: 0.8;"></rect><rect class="rect" id="2_0" width="14" height="14" x="209" y="372.5" style="fill: rgb(160, 160, 160); stroke: black; stroke-width: 3; opacity: 0.8;"></rect><rect class="rect" id="2_1" width="14" height="14" x="214" y="377.5" style="fill: rgb(224, 224, 224); stroke: black; stroke-width: 3; opacity: 0.8;"></rect><rect class="rect" id="2_2" width="14" height="14" x="219" y="382.5" style="fill: rgb(160, 160, 160); stroke: black; stroke-width: 3; opacity: 0.8;"></rect><rect class="rect" id="2_3" width="14" height="14" x="224" y="387.5" style="fill: rgb(224, 224, 224); stroke: black; stroke-width: 3; opacity: 0.8;"></rect><rect class="rect" id="2_4" width="14" height="14" x="229" y="392.5" style="fill: rgb(160, 160, 160); stroke: black; stroke-width: 3; opacity: 0.8;"></rect><rect class="rect" id="2_5" width="14" height="14" x="234" y="397.5" style="fill: rgb(224, 224, 224); stroke: black; stroke-width: 3; opacity: 0.8;"></rect><rect class="rect" id="2_6" width="14" height="14" x="239" y="402.5" style="fill: rgb(160, 160, 160); stroke: black; stroke-width: 3; opacity: 0.8;"></rect><rect class="rect" id="2_7" width="14" height="14" x="244" y="407.5" style="fill: rgb(224, 224, 224); stroke: black; stroke-width: 3; opacity: 0.8;"></rect><rect class="rect" id="2_8" width="14" height="14" x="249" y="412.5" style="fill: rgb(160, 160, 160); stroke: black; stroke-width: 3; opacity: 0.8;"></rect><rect class="rect" id="2_9" width="14" height="14" x="254" y="417.5" style="fill: rgb(224, 224, 224); stroke: black; stroke-width: 3; opacity: 0.8;"></rect><rect class="rect" id="2_10" width="14" height="14" x="259" y="422.5" style="fill: rgb(160, 160, 160); stroke: black; stroke-width: 3; opacity: 0.8;"></rect><rect class="rect" id="2_11" width="14" height="14" x="264" y="427.5" style="fill: rgb(224, 224, 224); stroke: black; stroke-width: 3; opacity: 0.8;"></rect><rect class="rect" id="2_12" width="14" height="14" x="269" y="432.5" style="fill: rgb(160, 160, 160); stroke: black; stroke-width: 3; opacity: 0.8;"></rect><rect class="rect" id="2_13" width="14" height="14" x="274" y="437.5" style="fill: rgb(224, 224, 224); stroke: black; stroke-width: 3; opacity: 0.8;"></rect><rect class="rect" id="2_14" width="14" height="14" x="279" y="442.5" style="fill: rgb(160, 160, 160); stroke: black; stroke-width: 3; opacity: 0.8;"></rect><rect class="rect" id="2_15" width="14" height="14" x="284" y="447.5" style="fill: rgb(224, 224, 224); stroke: black; stroke-width: 3; opacity: 0.8;"></rect><rect class="rect" id="2_16" width="14" height="14" x="289" y="452.5" style="fill: rgb(160, 160, 160); stroke: black; stroke-width: 3; opacity: 0.8;"></rect><rect class="rect" id="2_17" width="14" height="14" x="294" y="457.5" style="fill: rgb(224, 224, 224); stroke: black; stroke-width: 3; opacity: 0.8;"></rect><rect class="rect" id="2_18" width="14" height="14" x="299" y="462.5" style="fill: rgb(160, 160, 160); stroke: black; stroke-width: 3; opacity: 0.8;"></rect><rect class="rect" id="2_19" width="14" height="14" x="304" y="467.5" style="fill: rgb(224, 224, 224); stroke: black; stroke-width: 3; opacity: 0.8;"></rect><rect class="rect" id="2_20" width="14" height="14" x="309" y="472.5" style="fill: rgb(160, 160, 160); stroke: black; stroke-width: 3; opacity: 0.8;"></rect><rect class="rect" id="2_21" width="14" height="14" x="314" y="477.5" style="fill: rgb(224, 224, 224); stroke: black; stroke-width: 3; opacity: 0.8;"></rect><rect class="rect" id="2_22" width="14" height="14" x="319" y="482.5" style="fill: rgb(160, 160, 160); stroke: black; stroke-width: 3; opacity: 0.8;"></rect><rect class="rect" id="2_23" width="14" height="14" x="324" y="487.5" style="fill: rgb(224, 224, 224); stroke: black; stroke-width: 3; opacity: 0.8;"></rect><rect class="rect" id="2_24" width="14" height="14" x="329" y="492.5" style="fill: rgb(160, 160, 160); stroke: black; stroke-width: 3; opacity: 0.8;"></rect><rect class="rect" id="2_25" width="14" height="14" x="334" y="497.5" style="fill: rgb(224, 224, 224); stroke: black; stroke-width: 3; opacity: 0.8;"></rect><rect class="rect" id="2_26" width="14" height="14" x="339" y="502.5" style="fill: rgb(160, 160, 160); stroke: black; stroke-width: 3; opacity: 0.8;"></rect><rect class="rect" id="2_27" width="14" height="14" x="344" y="507.5" style="fill: rgb(224, 224, 224); stroke: black; stroke-width: 3; opacity: 0.8;"></rect><rect class="rect" id="2_28" width="14" height="14" x="349" y="512.5" style="fill: rgb(160, 160, 160); stroke: black; stroke-width: 3; opacity: 0.8;"></rect><rect class="rect" id="2_29" width="14" height="14" x="354" y="517.5" style="fill: rgb(224, 224, 224); stroke: black; stroke-width: 3; opacity: 0.8;"></rect><rect class="rect" id="2_30" width="14" height="14" x="359" y="522.5" style="fill: rgb(160, 160, 160); stroke: black; stroke-width: 3; opacity: 0.8;"></rect><rect class="rect" id="2_31" width="14" height="14" x="364" y="527.5" style="fill: rgb(224, 224, 224); stroke: black; stroke-width: 3; opacity: 0.8;"></rect><rect class="rect" id="3_0" width="14" height="14" x="278" y="292.5" style="fill: rgb(160, 160, 160); stroke: black; stroke-width: 3; opacity: 0.8;"></rect><rect class="rect" id="3_1" width="14" height="14" x="283" y="297.5" style="fill: rgb(224, 224, 224); stroke: black; stroke-width: 3; opacity: 0.8;"></rect><rect class="rect" id="3_2" width="14" height="14" x="288" y="302.5" style="fill: rgb(160, 160, 160); stroke: black; stroke-width: 3; opacity: 0.8;"></rect><rect class="rect" id="3_3" width="14" height="14" x="293" y="307.5" style="fill: rgb(224, 224, 224); stroke: black; stroke-width: 3; opacity: 0.8;"></rect><rect class="rect" id="3_4" width="14" height="14" x="298" y="312.5" style="fill: rgb(160, 160, 160); stroke: black; stroke-width: 3; opacity: 0.8;"></rect><rect class="rect" id="3_5" width="14" height="14" x="303" y="317.5" style="fill: rgb(224, 224, 224); stroke: black; stroke-width: 3; opacity: 0.8;"></rect><rect class="rect" id="3_6" width="14" height="14" x="308" y="322.5" style="fill: rgb(160, 160, 160); stroke: black; stroke-width: 3; opacity: 0.8;"></rect><rect class="rect" id="3_7" width="14" height="14" x="313" y="327.5" style="fill: rgb(224, 224, 224); stroke: black; stroke-width: 3; opacity: 0.8;"></rect><rect class="rect" id="3_8" width="14" height="14" x="318" y="332.5" style="fill: rgb(160, 160, 160); stroke: black; stroke-width: 3; opacity: 0.8;"></rect><rect class="rect" id="3_9" width="14" height="14" x="323" y="337.5" style="fill: rgb(224, 224, 224); stroke: black; stroke-width: 3; opacity: 0.8;"></rect><rect class="rect" id="3_10" width="14" height="14" x="328" y="342.5" style="fill: rgb(160, 160, 160); stroke: black; stroke-width: 3; opacity: 0.8;"></rect><rect class="rect" id="3_11" width="14" height="14" x="333" y="347.5" style="fill: rgb(224, 224, 224); stroke: black; stroke-width: 3; opacity: 0.8;"></rect><rect class="rect" id="3_12" width="14" height="14" x="338" y="352.5" style="fill: rgb(160, 160, 160); stroke: black; stroke-width: 3; opacity: 0.8;"></rect><rect class="rect" id="3_13" width="14" height="14" x="343" y="357.5" style="fill: rgb(224, 224, 224); stroke: black; stroke-width: 3; opacity: 0.8;"></rect><rect class="rect" id="3_14" width="14" height="14" x="348" y="362.5" style="fill: rgb(160, 160, 160); stroke: black; stroke-width: 3; opacity: 0.8;"></rect><rect class="rect" id="3_15" width="14" height="14" x="353" y="367.5" style="fill: rgb(224, 224, 224); stroke: black; stroke-width: 3; opacity: 0.8;"></rect><rect class="rect" id="3_16" width="14" height="14" x="358" y="372.5" style="fill: rgb(160, 160, 160); stroke: black; stroke-width: 3; opacity: 0.8;"></rect><rect class="rect" id="3_17" width="14" height="14" x="363" y="377.5" style="fill: rgb(224, 224, 224); stroke: black; stroke-width: 3; opacity: 0.8;"></rect><rect class="rect" id="3_18" width="14" height="14" x="368" y="382.5" style="fill: rgb(160, 160, 160); stroke: black; stroke-width: 3; opacity: 0.8;"></rect><rect class="rect" id="3_19" width="14" height="14" x="373" y="387.5" style="fill: rgb(224, 224, 224); stroke: black; stroke-width: 3; opacity: 0.8;"></rect><rect class="rect" id="3_20" width="14" height="14" x="378" y="392.5" style="fill: rgb(160, 160, 160); stroke: black; stroke-width: 3; opacity: 0.8;"></rect><rect class="rect" id="3_21" width="14" height="14" x="383" y="397.5" style="fill: rgb(224, 224, 224); stroke: black; stroke-width: 3; opacity: 0.8;"></rect><rect class="rect" id="3_22" width="14" height="14" x="388" y="402.5" style="fill: rgb(160, 160, 160); stroke: black; stroke-width: 3; opacity: 0.8;"></rect><rect class="rect" id="3_23" width="14" height="14" x="393" y="407.5" style="fill: rgb(224, 224, 224); stroke: black; stroke-width: 3; opacity: 0.8;"></rect><rect class="rect" id="3_24" width="14" height="14" x="398" y="412.5" style="fill: rgb(160, 160, 160); stroke: black; stroke-width: 3; opacity: 0.8;"></rect><rect class="rect" id="3_25" width="14" height="14" x="403" y="417.5" style="fill: rgb(224, 224, 224); stroke: black; stroke-width: 3; opacity: 0.8;"></rect><rect class="rect" id="3_26" width="14" height="14" x="408" y="422.5" style="fill: rgb(160, 160, 160); stroke: black; stroke-width: 3; opacity: 0.8;"></rect><rect class="rect" id="3_27" width="14" height="14" x="413" y="427.5" style="fill: rgb(224, 224, 224); stroke: black; stroke-width: 3; opacity: 0.8;"></rect><rect class="rect" id="3_28" width="14" height="14" x="418" y="432.5" style="fill: rgb(160, 160, 160); stroke: black; stroke-width: 3; opacity: 0.8;"></rect><rect class="rect" id="3_29" width="14" height="14" x="423" y="437.5" style="fill: rgb(224, 224, 224); stroke: black; stroke-width: 3; opacity: 0.8;"></rect><rect class="rect" id="3_30" width="14" height="14" x="428" y="442.5" style="fill: rgb(160, 160, 160); stroke: black; stroke-width: 3; opacity: 0.8;"></rect><rect class="rect" id="3_31" width="14" height="14" x="433" y="447.5" style="fill: rgb(224, 224, 224); stroke: black; stroke-width: 3; opacity: 0.8;"></rect><rect class="rect" id="3_32" width="14" height="14" x="438" y="452.5" style="fill: rgb(160, 160, 160); stroke: black; stroke-width: 3; opacity: 0.8;"></rect><rect class="rect" id="3_33" width="14" height="14" x="443" y="457.5" style="fill: rgb(224, 224, 224); stroke: black; stroke-width: 3; opacity: 0.8;"></rect><rect class="rect" id="3_34" width="14" height="14" x="448" y="462.5" style="fill: rgb(160, 160, 160); stroke: black; stroke-width: 3; opacity: 0.8;"></rect><rect class="rect" id="3_35" width="14" height="14" x="453" y="467.5" style="fill: rgb(224, 224, 224); stroke: black; stroke-width: 3; opacity: 0.8;"></rect><rect class="rect" id="3_36" width="14" height="14" x="458" y="472.5" style="fill: rgb(160, 160, 160); stroke: black; stroke-width: 3; opacity: 0.8;"></rect><rect class="rect" id="3_37" width="14" height="14" x="463" y="477.5" style="fill: rgb(224, 224, 224); stroke: black; stroke-width: 3; opacity: 0.8;"></rect><rect class="rect" id="3_38" width="14" height="14" x="468" y="482.5" style="fill: rgb(160, 160, 160); stroke: black; stroke-width: 3; opacity: 0.8;"></rect><rect class="rect" id="3_39" width="14" height="14" x="473" y="487.5" style="fill: rgb(224, 224, 224); stroke: black; stroke-width: 3; opacity: 0.8;"></rect><rect class="rect" id="3_40" width="14" height="14" x="478" y="492.5" style="fill: rgb(160, 160, 160); stroke: black; stroke-width: 3; opacity: 0.8;"></rect><rect class="rect" id="3_41" width="14" height="14" x="483" y="497.5" style="fill: rgb(224, 224, 224); stroke: black; stroke-width: 3; opacity: 0.8;"></rect><rect class="rect" id="3_42" width="14" height="14" x="488" y="502.5" style="fill: rgb(160, 160, 160); stroke: black; stroke-width: 3; opacity: 0.8;"></rect><rect class="rect" id="3_43" width="14" height="14" x="493" y="507.5" style="fill: rgb(224, 224, 224); stroke: black; stroke-width: 3; opacity: 0.8;"></rect><rect class="rect" id="3_44" width="14" height="14" x="498" y="512.5" style="fill: rgb(160, 160, 160); stroke: black; stroke-width: 3; opacity: 0.8;"></rect><rect class="rect" id="3_45" width="14" height="14" x="503" y="517.5" style="fill: rgb(224, 224, 224); stroke: black; stroke-width: 3; opacity: 0.8;"></rect><rect class="rect" id="3_46" width="14" height="14" x="508" y="522.5" style="fill: rgb(160, 160, 160); stroke: black; stroke-width: 3; opacity: 0.8;"></rect><rect class="rect" id="3_47" width="14" height="14" x="513" y="527.5" style="fill: rgb(224, 224, 224); stroke: black; stroke-width: 3; opacity: 0.8;"></rect><rect class="rect" id="3_48" width="14" height="14" x="518" y="532.5" style="fill: rgb(160, 160, 160); stroke: black; stroke-width: 3; opacity: 0.8;"></rect><rect class="rect" id="3_49" width="14" height="14" x="523" y="537.5" style="fill: rgb(224, 224, 224); stroke: black; stroke-width: 3; opacity: 0.8;"></rect><rect class="rect" id="3_50" width="14" height="14" x="528" y="542.5" style="fill: rgb(160, 160, 160); stroke: black; stroke-width: 3; opacity: 0.8;"></rect><rect class="rect" id="3_51" width="14" height="14" x="533" y="547.5" style="fill: rgb(224, 224, 224); stroke: black; stroke-width: 3; opacity: 0.8;"></rect><rect class="rect" id="3_52" width="14" height="14" x="538" y="552.5" style="fill: rgb(160, 160, 160); stroke: black; stroke-width: 3; opacity: 0.8;"></rect><rect class="rect" id="3_53" width="14" height="14" x="543" y="557.5" style="fill: rgb(224, 224, 224); stroke: black; stroke-width: 3; opacity: 0.8;"></rect><rect class="rect" id="3_54" width="14" height="14" x="548" y="562.5" style="fill: rgb(160, 160, 160); stroke: black; stroke-width: 3; opacity: 0.8;"></rect><rect class="rect" id="3_55" width="14" height="14" x="553" y="567.5" style="fill: rgb(224, 224, 224); stroke: black; stroke-width: 3; opacity: 0.8;"></rect><rect class="rect" id="3_56" width="14" height="14" x="558" y="572.5" style="fill: rgb(160, 160, 160); stroke: black; stroke-width: 3; opacity: 0.8;"></rect><rect class="rect" id="3_57" width="14" height="14" x="563" y="577.5" style="fill: rgb(224, 224, 224); stroke: black; stroke-width: 3; opacity: 0.8;"></rect><rect class="rect" id="3_58" width="14" height="14" x="568" y="582.5" style="fill: rgb(160, 160, 160); stroke: black; stroke-width: 3; opacity: 0.8;"></rect><rect class="rect" id="3_59" width="14" height="14" x="573" y="587.5" style="fill: rgb(224, 224, 224); stroke: black; stroke-width: 3; opacity: 0.8;"></rect><rect class="rect" id="3_60" width="14" height="14" x="578" y="592.5" style="fill: rgb(160, 160, 160); stroke: black; stroke-width: 3; opacity: 0.8;"></rect><rect class="rect" id="3_61" width="14" height="14" x="583" y="597.5" style="fill: rgb(224, 224, 224); stroke: black; stroke-width: 3; opacity: 0.8;"></rect><rect class="rect" id="3_62" width="14" height="14" x="588" y="602.5" style="fill: rgb(160, 160, 160); stroke: black; stroke-width: 3; opacity: 0.8;"></rect><rect class="rect" id="3_63" width="14" height="14" x="593" y="607.5" style="fill: rgb(224, 224, 224); stroke: black; stroke-width: 3; opacity: 0.8;"></rect><rect class="rect" id="4_0" width="7" height="7" x="507" y="296" style="fill: rgb(160, 160, 160); stroke: black; stroke-width: 3; opacity: 0.8;"></rect><rect class="rect" id="4_1" width="7" height="7" x="512" y="301" style="fill: rgb(224, 224, 224); stroke: black; stroke-width: 3; opacity: 0.8;"></rect><rect class="rect" id="4_2" width="7" height="7" x="517" y="306" style="fill: rgb(160, 160, 160); stroke: black; stroke-width: 3; opacity: 0.8;"></rect><rect class="rect" id="4_3" width="7" height="7" x="522" y="311" style="fill: rgb(224, 224, 224); stroke: black; stroke-width: 3; opacity: 0.8;"></rect><rect class="rect" id="4_4" width="7" height="7" x="527" y="316" style="fill: rgb(160, 160, 160); stroke: black; stroke-width: 3; opacity: 0.8;"></rect><rect class="rect" id="4_5" width="7" height="7" x="532" y="321" style="fill: rgb(224, 224, 224); stroke: black; stroke-width: 3; opacity: 0.8;"></rect><rect class="rect" id="4_6" width="7" height="7" x="537" y="326" style="fill: rgb(160, 160, 160); stroke: black; stroke-width: 3; opacity: 0.8;"></rect><rect class="rect" id="4_7" width="7" height="7" x="542" y="331" style="fill: rgb(224, 224, 224); stroke: black; stroke-width: 3; opacity: 0.8;"></rect><rect class="rect" id="4_8" width="7" height="7" x="547" y="336" style="fill: rgb(160, 160, 160); stroke: black; stroke-width: 3; opacity: 0.8;"></rect><rect class="rect" id="4_9" width="7" height="7" x="552" y="341" style="fill: rgb(224, 224, 224); stroke: black; stroke-width: 3; opacity: 0.8;"></rect><rect class="rect" id="4_10" width="7" height="7" x="557" y="346" style="fill: rgb(160, 160, 160); stroke: black; stroke-width: 3; opacity: 0.8;"></rect><rect class="rect" id="4_11" width="7" height="7" x="562" y="351" style="fill: rgb(224, 224, 224); stroke: black; stroke-width: 3; opacity: 0.8;"></rect><rect class="rect" id="4_12" width="7" height="7" x="567" y="356" style="fill: rgb(160, 160, 160); stroke: black; stroke-width: 3; opacity: 0.8;"></rect><rect class="rect" id="4_13" width="7" height="7" x="572" y="361" style="fill: rgb(224, 224, 224); stroke: black; stroke-width: 3; opacity: 0.8;"></rect><rect class="rect" id="4_14" width="7" height="7" x="577" y="366" style="fill: rgb(160, 160, 160); stroke: black; stroke-width: 3; opacity: 0.8;"></rect><rect class="rect" id="4_15" width="7" height="7" x="582" y="371" style="fill: rgb(224, 224, 224); stroke: black; stroke-width: 3; opacity: 0.8;"></rect><rect class="rect" id="4_16" width="7" height="7" x="587" y="376" style="fill: rgb(160, 160, 160); stroke: black; stroke-width: 3; opacity: 0.8;"></rect><rect class="rect" id="4_17" width="7" height="7" x="592" y="381" style="fill: rgb(224, 224, 224); stroke: black; stroke-width: 3; opacity: 0.8;"></rect><rect class="rect" id="4_18" width="7" height="7" x="597" y="386" style="fill: rgb(160, 160, 160); stroke: black; stroke-width: 3; opacity: 0.8;"></rect><rect class="rect" id="4_19" width="7" height="7" x="602" y="391" style="fill: rgb(224, 224, 224); stroke: black; stroke-width: 3; opacity: 0.8;"></rect><rect class="rect" id="4_20" width="7" height="7" x="607" y="396" style="fill: rgb(160, 160, 160); stroke: black; stroke-width: 3; opacity: 0.8;"></rect><rect class="rect" id="4_21" width="7" height="7" x="612" y="401" style="fill: rgb(224, 224, 224); stroke: black; stroke-width: 3; opacity: 0.8;"></rect><rect class="rect" id="4_22" width="7" height="7" x="617" y="406" style="fill: rgb(160, 160, 160); stroke: black; stroke-width: 3; opacity: 0.8;"></rect><rect class="rect" id="4_23" width="7" height="7" x="622" y="411" style="fill: rgb(224, 224, 224); stroke: black; stroke-width: 3; opacity: 0.8;"></rect><rect class="rect" id="4_24" width="7" height="7" x="627" y="416" style="fill: rgb(160, 160, 160); stroke: black; stroke-width: 3; opacity: 0.8;"></rect><rect class="rect" id="4_25" width="7" height="7" x="632" y="421" style="fill: rgb(224, 224, 224); stroke: black; stroke-width: 3; opacity: 0.8;"></rect><rect class="rect" id="4_26" width="7" height="7" x="637" y="426" style="fill: rgb(160, 160, 160); stroke: black; stroke-width: 3; opacity: 0.8;"></rect><rect class="rect" id="4_27" width="7" height="7" x="642" y="431" style="fill: rgb(224, 224, 224); stroke: black; stroke-width: 3; opacity: 0.8;"></rect><rect class="rect" id="4_28" width="7" height="7" x="647" y="436" style="fill: rgb(160, 160, 160); stroke: black; stroke-width: 3; opacity: 0.8;"></rect><rect class="rect" id="4_29" width="7" height="7" x="652" y="441" style="fill: rgb(224, 224, 224); stroke: black; stroke-width: 3; opacity: 0.8;"></rect><rect class="rect" id="4_30" width="7" height="7" x="657" y="446" style="fill: rgb(160, 160, 160); stroke: black; stroke-width: 3; opacity: 0.8;"></rect><rect class="rect" id="4_31" width="7" height="7" x="662" y="451" style="fill: rgb(224, 224, 224); stroke: black; stroke-width: 3; opacity: 0.8;"></rect><rect class="rect" id="4_32" width="7" height="7" x="667" y="456" style="fill: rgb(160, 160, 160); stroke: black; stroke-width: 3; opacity: 0.8;"></rect><rect class="rect" id="4_33" width="7" height="7" x="672" y="461" style="fill: rgb(224, 224, 224); stroke: black; stroke-width: 3; opacity: 0.8;"></rect><rect class="rect" id="4_34" width="7" height="7" x="677" y="466" style="fill: rgb(160, 160, 160); stroke: black; stroke-width: 3; opacity: 0.8;"></rect><rect class="rect" id="4_35" width="7" height="7" x="682" y="471" style="fill: rgb(224, 224, 224); stroke: black; stroke-width: 3; opacity: 0.8;"></rect><rect class="rect" id="4_36" width="7" height="7" x="687" y="476" style="fill: rgb(160, 160, 160); stroke: black; stroke-width: 3; opacity: 0.8;"></rect><rect class="rect" id="4_37" width="7" height="7" x="692" y="481" style="fill: rgb(224, 224, 224); stroke: black; stroke-width: 3; opacity: 0.8;"></rect><rect class="rect" id="4_38" width="7" height="7" x="697" y="486" style="fill: rgb(160, 160, 160); stroke: black; stroke-width: 3; opacity: 0.8;"></rect><rect class="rect" id="4_39" width="7" height="7" x="702" y="491" style="fill: rgb(224, 224, 224); stroke: black; stroke-width: 3; opacity: 0.8;"></rect><rect class="rect" id="4_40" width="7" height="7" x="707" y="496" style="fill: rgb(160, 160, 160); stroke: black; stroke-width: 3; opacity: 0.8;"></rect><rect class="rect" id="4_41" width="7" height="7" x="712" y="501" style="fill: rgb(224, 224, 224); stroke: black; stroke-width: 3; opacity: 0.8;"></rect><rect class="rect" id="4_42" width="7" height="7" x="717" y="506" style="fill: rgb(160, 160, 160); stroke: black; stroke-width: 3; opacity: 0.8;"></rect><rect class="rect" id="4_43" width="7" height="7" x="722" y="511" style="fill: rgb(224, 224, 224); stroke: black; stroke-width: 3; opacity: 0.8;"></rect><rect class="rect" id="4_44" width="7" height="7" x="727" y="516" style="fill: rgb(160, 160, 160); stroke: black; stroke-width: 3; opacity: 0.8;"></rect><rect class="rect" id="4_45" width="7" height="7" x="732" y="521" style="fill: rgb(224, 224, 224); stroke: black; stroke-width: 3; opacity: 0.8;"></rect><rect class="rect" id="4_46" width="7" height="7" x="737" y="526" style="fill: rgb(160, 160, 160); stroke: black; stroke-width: 3; opacity: 0.8;"></rect><rect class="rect" id="4_47" width="7" height="7" x="742" y="531" style="fill: rgb(224, 224, 224); stroke: black; stroke-width: 3; opacity: 0.8;"></rect><rect class="rect" id="4_48" width="7" height="7" x="747" y="536" style="fill: rgb(160, 160, 160); stroke: black; stroke-width: 3; opacity: 0.8;"></rect><rect class="rect" id="4_49" width="7" height="7" x="752" y="541" style="fill: rgb(224, 224, 224); stroke: black; stroke-width: 3; opacity: 0.8;"></rect><rect class="rect" id="4_50" width="7" height="7" x="757" y="546" style="fill: rgb(160, 160, 160); stroke: black; stroke-width: 3; opacity: 0.8;"></rect><rect class="rect" id="4_51" width="7" height="7" x="762" y="551" style="fill: rgb(224, 224, 224); stroke: black; stroke-width: 3; opacity: 0.8;"></rect><rect class="rect" id="4_52" width="7" height="7" x="767" y="556" style="fill: rgb(160, 160, 160); stroke: black; stroke-width: 3; opacity: 0.8;"></rect><rect class="rect" id="4_53" width="7" height="7" x="772" y="561" style="fill: rgb(224, 224, 224); stroke: black; stroke-width: 3; opacity: 0.8;"></rect><rect class="rect" id="4_54" width="7" height="7" x="777" y="566" style="fill: rgb(160, 160, 160); stroke: black; stroke-width: 3; opacity: 0.8;"></rect><rect class="rect" id="4_55" width="7" height="7" x="782" y="571" style="fill: rgb(224, 224, 224); stroke: black; stroke-width: 3; opacity: 0.8;"></rect><rect class="rect" id="4_56" width="7" height="7" x="787" y="576" style="fill: rgb(160, 160, 160); stroke: black; stroke-width: 3; opacity: 0.8;"></rect><rect class="rect" id="4_57" width="7" height="7" x="792" y="581" style="fill: rgb(224, 224, 224); stroke: black; stroke-width: 3; opacity: 0.8;"></rect><rect class="rect" id="4_58" width="7" height="7" x="797" y="586" style="fill: rgb(160, 160, 160); stroke: black; stroke-width: 3; opacity: 0.8;"></rect><rect class="rect" id="4_59" width="7" height="7" x="802" y="591" style="fill: rgb(224, 224, 224); stroke: black; stroke-width: 3; opacity: 0.8;"></rect><rect class="rect" id="4_60" width="7" height="7" x="807" y="596" style="fill: rgb(160, 160, 160); stroke: black; stroke-width: 3; opacity: 0.8;"></rect><rect class="rect" id="4_61" width="7" height="7" x="812" y="601" style="fill: rgb(224, 224, 224); stroke: black; stroke-width: 3; opacity: 0.8;"></rect><rect class="rect" id="4_62" width="7" height="7" x="817" y="606" style="fill: rgb(160, 160, 160); stroke: black; stroke-width: 3; opacity: 0.8;"></rect><rect class="rect" id="4_63" width="7" height="7" x="822" y="611" style="fill: rgb(224, 224, 224); stroke: black; stroke-width: 3; opacity: 0.8;"></rect><rect class="conv" id="conv_0" width="5" height="5" x="55.60364696428295" y="457.2474230215462" style="fill-opacity: 0; stroke: black; stroke-width: 3; stroke-opacity: 0.8;"></rect><rect class="conv" id="conv_1" width="2" height="2" x="291.58361813739464" y="535.7050973590493" style="fill-opacity: 0; stroke: black; stroke-width: 3; stroke-opacity: 0.8;"></rect><rect class="conv" id="conv_2" width="5" height="5" x="369.353602850806" y="533.708240750426" style="fill-opacity: 0; stroke: black; stroke-width: 3; stroke-opacity: 0.8;"></rect><rect class="conv" id="conv_3" width="2" height="2" x="600.1572502921109" y="615.78897013404" style="fill-opacity: 0; stroke: black; stroke-width: 3; stroke-opacity: 0.8;"></rect><line class="link" id="conv_0" x1="60.60364696428295" y1="462.2474230215462" x2="287.8218310869531" y2="537.8446888957953" style="stroke: black; stroke-width: 1.5; stroke-opacity: 0.8;"></line><line class="link" id="conv_0" x1="60.60364696428295" y1="457.2474230215462" x2="287.8218310869531" y2="537.8446888957953" style="stroke: black; stroke-width: 1.5; stroke-opacity: 0.8;"></line><line class="link" id="conv_1" x1="293.58361813739464" y1="537.7050973590493" x2="369.698871304751" y2="535.6873601164111" style="stroke: black; stroke-width: 1.5; stroke-opacity: 0.8;"></line><line class="link" id="conv_1" x1="293.58361813739464" y1="535.7050973590493" x2="369.698871304751" y2="535.6873601164111" style="stroke: black; stroke-width: 1.5; stroke-opacity: 0.8;"></line><line class="link" id="conv_2" x1="374.353602850806" y1="538.708240750426" x2="601.3278266568093" y2="617.1572633895514" style="stroke: black; stroke-width: 1.5; stroke-opacity: 0.8;"></line><line class="link" id="conv_2" x1="374.353602850806" y1="533.708240750426" x2="601.3278266568093" y2="617.1572633895514" style="stroke: black; stroke-width: 1.5; stroke-opacity: 0.8;"></line><line class="link" id="conv_3" x1="602.1572502921109" y1="617.78897013404" x2="826.175062670398" y2="615.83523257819" style="stroke: black; stroke-width: 1.5; stroke-opacity: 0.8;"></line><line class="link" id="conv_3" x1="602.1572502921109" y1="615.78897013404" x2="826.175062670398" y2="615.83523257819" style="stroke: black; stroke-width: 1.5; stroke-opacity: 0.8;"></line><polygon class="poly" id="fc_0" points="729,346.3377887443053 739,346.3377887443053 960.3244225113893,567.6622112556947 950.3244225113893,567.6622112556947" style="fill: rgb(224, 224, 224); stroke: black; stroke-width: 3; opacity: 0.8;"></polygon><polygon class="poly" id="fc_1" points="962.3244225113893,420.93755415948607 972.3244225113893,420.93755415948607 1044.4493141924172,493.06244584051393 1034.4493141924172,493.06244584051393" style="fill: rgb(224, 224, 224); stroke: black; stroke-width: 3; opacity: 0.8;"></polygon><polygon class="poly" id="fc_2" points="1046.4493141924172,453.46446609406723 1056.4493141924172,453.46446609406723 1063.5203820042827,460.5355339059327 1053.5203820042827,460.5355339059327" style="fill: rgb(224, 224, 224); stroke: black; stroke-width: 3; opacity: 0.8;"></polygon><line class="line" id="fc_0" x1="829" y1="618" x2="950.3244225113893" y2="567.6622112556947" style="stroke: black; stroke-width: 1.5; stroke-opacity: 0.8;"></line><line class="line" id="fc_0" x1="514" y1="296" x2="729" y2="346.3377887443053" style="stroke: black; stroke-width: 1.5; stroke-opacity: 0.8;"></line><line class="line" id="fc_1" x1="960.3244225113893" y1="567.6622112556947" x2="1034.4493141924172" y2="493.06244584051393" style="stroke: black; stroke-width: 1.5; stroke-opacity: 0.8;"></line><line class="line" id="fc_1" x1="739" y1="346.3377887443053" x2="962.3244225113893" y2="420.93755415948607" style="stroke: black; stroke-width: 1.5; stroke-opacity: 0.8;"></line><line class="line" id="fc_2" x1="1044.4493141924172" y1="493.06244584051393" x2="1053.5203820042825" y2="460.53553390593277" style="stroke: black; stroke-width: 1.5; stroke-opacity: 0.8;"></line><line class="line" id="fc_2" x1="972.3244225113893" y1="420.93755415948607" x2="1046.4493141924172" y2="453.46446609406723" style="stroke: black; stroke-width: 1.5; stroke-opacity: 0.8;"></line><text class="text" dy=".35em" font-family="sans-serif" x="132.75" y="772" style="font-size: 16px;">Convolution</text><text class="text" dy=".35em" font-family="sans-serif" x="286.25" y="772" style="font-size: 16px;">Max-Pool</text><text class="text" dy=".35em" font-family="sans-serif" x="395.25" y="772" style="font-size: 16px;">Convolution</text><text class="text" dy=".35em" font-family="sans-serif" x="622.5" y="772" style="font-size: 16px;">Max-Pool</text><text class="text" dy=".35em" font-family="sans-serif" x="819.3311056278474" y="772" style="font-size: 16px;">Flatten</text><text class="info" dy="-0.3em" font-family="sans-serif" x="50" y="428" style="font-size: 16px;">1@28x28</text><text class="info" dy="-0.3em" font-family="sans-serif" x="126" y="350.5" style="font-size: 16px;">32@28x28</text><text class="info" dy="-0.3em" font-family="sans-serif" x="209" y="357.5" style="font-size: 16px;">32@14x14</text><text class="info" dy="-0.3em" font-family="sans-serif" x="278" y="277.5" style="font-size: 16px;">64@14x14</text><text class="info" dy="-0.3em" font-family="sans-serif" x="507" y="281" style="font-size: 16px;">64@7x7</text><text class="info" dy="-0.3em" font-family="sans-serif" x="729" y="331.3377887443053" style="font-size: 16px;">1x313</text><text class="info" dy="-0.3em" font-family="sans-serif" x="962.3244225113893" y="405.93755415948607" style="font-size: 16px;">1x102</text><text class="info" dy="-0.3em" font-family="sans-serif" x="1046.4493141924172" y="438.46446609406723" style="font-size: 16px;">1x10</text></g></svg>